<?xml version="1.0" standalone="no"?>
<!DOCTYPE svg PUBLIC "-//W3C//DTD SVG 20010904//EN"
 "http://www.w3.org/TR/2001/REC-SVG-20010904/DTD/svg10.dtd">
<svg version="1.0" xmlns="http://www.w3.org/2000/svg"
 width="235.000000pt" height="235.000000pt" viewBox="0 0 235.000000 235.000000"
 preserveAspectRatio="xMidYMid meet">
<metadata>
Created by potrace 1.11, written by Peter Selinger 2001-2013
</metadata>
<g transform="translate(0.000000,235.000000) scale(0.100000,-0.100000)"
fill="#000000" stroke="none">
<path d="M0 1015 l0 -1015 1015 0 1015 0 0 329 c0 251 -3 331 -12 338 -22 18
-80 32 -158 38 -130 11 -239 25 -266 35 -14 6 -47 10 -73 10 -57 0 -108 16
-138 42 -21 20 -21 20 -34 -4 -7 -12 -32 -45 -56 -73 -24 -27 -46 -61 -50 -75
-7 -29 -36 -87 -58 -114 -25 -33 -83 -7 -148 64 -30 33 -81 79 -113 102 -76
53 -110 84 -145 132 -58 78 6 101 126 45 37 -18 83 -32 103 -33 33 -1 38 3 70
56 19 32 76 100 128 152 l94 95 -32 17 c-30 16 -31 18 -14 28 35 20 57 47 54
64 -4 21 -59 41 -118 41 -64 1 -263 -35 -299 -54 -41 -21 -189 -75 -205 -75
-7 0 -30 11 -50 25 -42 29 -64 32 -72 10 -4 -8 -12 -15 -20 -15 -8 0 -14 -10
-14 -25 0 -14 -4 -25 -10 -25 -5 0 -10 9 -10 21 0 27 -24 19 -28 -9 -4 -25
-22 -30 -22 -6 0 9 -6 14 -12 11 -7 -2 -12 -11 -10 -21 2 -9 -4 -16 -13 -16
-9 0 -13 5 -10 10 3 6 -3 10 -14 10 -24 0 -36 20 -46 77 -6 39 -5 44 19 54 14
7 26 18 26 26 0 7 5 13 10 13 6 0 10 -7 10 -15 0 -8 7 -15 15 -15 8 0 15 9 15
20 0 11 5 20 10 20 6 0 10 -7 10 -15 0 -8 5 -15 10 -15 6 0 10 9 10 20 0 11 5
20 10 20 6 0 10 -4 10 -10 0 -17 59 -41 85 -34 26 6 32 18 15 29 -6 4 -8 10
-5 15 3 5 26 2 51 -7 38 -13 54 -13 112 -3 63 12 71 17 134 80 37 37 88 78
115 91 40 21 60 43 122 134 40 61 81 133 91 160 9 28 21 58 25 69 7 15 5 17
-13 12 -13 -5 -25 -1 -34 9 -7 9 -21 24 -32 33 -10 9 -26 25 -36 35 -10 11
-28 17 -41 15 -22 -3 -24 1 -27 40 l-3 42 -535 0 -534 0 0 -1015z"/>
<path d="M1635 1998 c94 -59 113 -73 194 -143 125 -109 152 -129 178 -137 l23
-6 0 159 0 159 -222 0 -223 0 50 -32z"/>
<path d="M1346 1582 l-40 -27 55 -7 c30 -3 70 -11 89 -17 43 -13 40 -14 40 2
0 15 -74 77 -92 76 -7 0 -31 -12 -52 -27z"/>
<path d="M1224 1457 c-25 -15 -104 -82 -104 -89 0 -8 102 10 110 19 8 8 24 83
18 83 -2 -1 -12 -6 -24 -13z"/>
<path d="M1954 1139 c-38 -33 -111 -90 -162 -125 -51 -36 -89 -70 -86 -75 3
-6 27 -9 52 -8 26 1 67 -3 92 -8 25 -5 72 -6 105 -3 33 4 63 5 68 3 4 -2 7 59
7 136 0 78 -1 141 -3 141 -2 0 -35 -27 -73 -61z"/>
</g>
</svg>
